<?xml version="1.0" standalone="no"?>
<!DOCTYPE svg PUBLIC "-//W3C//DTD SVG 20010904//EN"
 "http://www.w3.org/TR/2001/REC-SVG-20010904/DTD/svg10.dtd">
<svg version="1.0" xmlns="http://www.w3.org/2000/svg"
 width="512.000000pt" height="512.000000pt" viewBox="0 0 512.000000 512.000000"
 preserveAspectRatio="xMidYMid meet">
<metadata>
Created by potrace 1.14, written by Peter Selinger 2001-2017
</metadata>
<g transform="translate(0.000000,512.000000) scale(0.100000,-0.100000)"
fill="#000000" stroke="none">
<path d="M2369 5026 c-2 -2 -47 -6 -99 -10 -146 -10 -289 -29 -450 -61 -528
-103 -991 -305 -1336 -582 -179 -143 -312 -304 -394 -478 -67 -142 -85 -222
-84 -375 1 -137 17 -217 62 -308 53 -108 181 -202 302 -221 93 -15 757 -13
815 3 239 63 370 289 309 531 -8 33 -17 68 -19 78 -3 14 10 25 60 47 245 110
566 197 803 218 136 12 382 6 517 -12 215 -30 503 -110 673 -187 24 -11 61
-27 83 -35 28 -12 38 -21 35 -33 -56 -191 -46 -320 34 -437 52 -75 162 -157
227 -169 10 -2 18 -4 18 -5 0 -16 746 -21 830 -5 171 33 294 156 340 340 48
192 15 430 -84 611 -272 494 -965 890 -1821 1039 -34 6 -243 34 -305 40 -56 6
-511 15 -516 11z m391 -310 c102 -6 157 -11 315 -32 22 -3 96 -16 164 -30 839
-168 1475 -593 1567 -1049 16 -78 -2 -224 -33 -271 -34 -52 -44 -53 -414 -53
-370 0 -391 3 -424 52 -26 40 -24 73 11 206 19 69 34 141 34 159 0 38 -23 88
-54 114 -30 26 -244 129 -356 171 -182 69 -448 143 -575 162 -39 5 -69 10
-130 20 -50 8 -245 19 -335 19 -392 -2 -819 -107 -1216 -300 -181 -88 -196
-121 -144 -324 40 -156 42 -172 19 -209 -39 -65 -34 -64 -415 -63 -190 1 -356
4 -367 8 -63 19 -98 100 -98 224 1 85 5 111 27 178 96 286 448 581 930 778
142 57 414 142 515 159 19 3 50 10 69 15 49 12 221 40 283 46 29 3 63 7 77 9
13 3 88 7 165 11 77 4 141 7 142 9 3 2 90 -1 243 -9z"/>
<path d="M2093 3213 c-68 -38 -78 -63 -81 -210 l-4 -133 -168 0 c-93 0 -180
-4 -193 -9 -28 -11 -70 -52 -298 -292 -329 -344 -385 -410 -496 -587 -102
-163 -206 -403 -249 -577 -8 -33 -17 -69 -20 -80 -7 -30 -27 -151 -40 -253 -4
-26 -8 -227 -9 -447 -2 -424 -1 -442 46 -491 11 -12 36 -26 57 -33 28 -9 490
-11 1942 -9 l1905 3 33 23 c67 48 66 46 66 462 0 329 -4 467 -18 560 -1 14 -6
50 -10 80 -21 157 -98 395 -187 576 -55 114 -186 322 -244 389 -94 108 -133
152 -165 185 -19 20 -105 110 -190 200 -207 218 -280 290 -296 291 -8 1 -18 3
-24 4 -5 1 -84 3 -175 4 l-165 1 0 122 c0 111 -2 125 -25 163 -59 102 -198 99
-259 -4 -17 -29 -20 -54 -21 -155 l-1 -121 -242 -3 c-133 -1 -243 1 -243 5 -1
5 -2 58 -3 118 -3 122 -8 149 -40 183 -48 53 -124 67 -183 35z m1364 -758
c419 -437 483 -513 590 -700 95 -164 184 -419 208 -590 3 -22 9 -63 13 -91 5
-28 10 -191 11 -362 2 -253 0 -312 -11 -313 -46 -3 -3406 -4 -3416 0 -10 3
-12 62 -11 285 2 333 11 442 50 606 33 140 84 277 157 420 35 66 146 239 179
275 10 11 43 50 74 85 31 36 81 90 110 121 30 31 122 128 206 215 l151 159
792 0 792 0 105 -110z"/>
<path d="M2411 2234 c-251 -52 -458 -211 -569 -438 -94 -192 -104 -438 -24
-644 61 -159 207 -322 362 -405 164 -87 354 -116 540 -82 287 53 542 298 616
590 4 17 9 37 11 45 13 49 9 242 -7 315 -40 189 -154 365 -310 481 -58 43
-185 103 -267 126 -94 26 -257 31 -352 12z m293 -315 c121 -38 234 -131 289
-237 45 -87 58 -140 58 -236 -1 -204 -127 -383 -321 -457 -66 -25 -104 -32
-173 -31 -335 2 -573 338 -462 652 37 106 134 221 227 270 117 62 261 77 382
39z"/>
</g>
</svg>
